<svg xmlns="http://www.w3.org/2000/svg" viewBox="0 0 64 64">
  <defs>
    <linearGradient id="bg" x1="0%" y1="0%" x2="100%" y2="100%">
      <stop offset="0%" style="stop-color:#6366f1"/>
      <stop offset="100%" style="stop-color:#4f46e5"/>
    </linearGradient>
  </defs>
  <rect width="64" height="64" rx="14" fill="url(#bg)"/>
  <!-- Rocket body -->
  <g transform="translate(32,32) rotate(-45) translate(-12,-18)" fill="white">
    <path d="M12 2C12 2 4 10 4 20C4 24 6 28 8 30L16 30C18 28 20 24 20 20C20 10 12 2 12 2Z" opacity="0.95"/>
    <!-- Window -->
    <circle cx="12" cy="16" r="3" fill="#6366f1"/>
    <!-- Fins -->
    <path d="M4 24L0 30L6 28Z" fill="white" opacity="0.8"/>
    <path d="M20 24L24 30L18 28Z" fill="white" opacity="0.8"/>
    <!-- Flame -->
    <path d="M8 30L12 38L16 30Z" fill="#fbbf24"/>
    <path d="M10 30L12 35L14 30Z" fill="#f97316"/>
  </g>
</svg>
